# xmcd
#
# Track frame offsets:
#	150
#	13460
#	29116
#	37384
#	56752
#	65283
#	71414
#	78670
#	93051
#	102069
#	108762
#	118568
#	127961
#	150029
#	160210
#
# Disc length: 2277 seconds
#
# Revision: 0
# Processed by: cddbd v1.5.2PL0 Copyright (c) Steve Scherf et al.
# Submitted via: EZCDAudioConverter 1.2.5.1
#
DISCID=be08e30f
DTITLE=Luonteri Surf - Voi
DYEAR=2013
DGENRE=
TTITLE0=Tahdon huutaa
TTITLE1=Hesan nainen
TTITLE2=Kaahataan
TTITLE3=Katapultti
TTITLE4=Meidän kellarissa
TTITLE5=Se en ollut minä
TTITLE6=Sille pitää nauraa
TTITLE7=Kun pop soi
TTITLE8=Toinen unelma
TTITLE9=Ole alasti, tuo kaljaa
TTITLE10=Aina joku muu
TTITLE11=Minä lohdutan sinua
TTITLE12=Surffari
TTITLE13=Tyttö josta tykkään
TTITLE14=Paha poika
EXTD=
EXTT0=
EXTT1=
EXTT2=
EXTT3=
EXTT4=
EXTT5=
EXTT6=
EXTT7=
EXTT8=
EXTT9=
EXTT10=
EXTT11=
EXTT12=
EXTT13=
EXTT14=
PLAYORDER=
